/* XPM */
static char *_4fa77e4d38143afde2f7fa205d08daerR7L7yRsF7b51NQJ[] = {
/* columns rows colors chars-per-pixel */
"38 37 5 1 ",
"  c None",
". c black",
"X c gray77",
"o c #F6F6F6",
"O c white",
/* pixels */
"                                      ",
"                                      ",
"                                      ",
"                                      ",
"                                      ",
"                                      ",
"                                      ",
"                                      ",
"                                      ",
"                                      ",
"                                      ",
"                                      ",
"             ..........               ",
"           ..oooooooooo..             ",
"          .ooOOoooooooooo..           ",
"         .ooOoooooooooooooo.          ",
"        .ooOooooooooooooooo..         ",
"       .oooooooooooooooooooXX.        ",
"      .ooooooooooooooooooooXX.        ",
"      .oo..ooo..oooooooooooXXX.       ",
"      .o....o....ooooooooooXXX.     ..",
"      .o....o....ooooooooooXXX.   ..X.",
"      .o....o....ooooooooooXXXX...XXX.",
"      .o....o....oooooooooooXXXXXXXX. ",
"      .oo..ooo..ooooooooooooXXXXXXXX. ",
"      .oooooooooooooooooooooXXXXXXX.  ",
"      .oooooooooooooooooooooXXXXXXX.  ",
"    ...o..........ooo..oooooXXXXXX.   ",
"   .oo.oo........ooo.ooooooXXXXXX.    ",
"   .oo.ooo......oooo.ooooooXXXXX.     ",
"   .oo..oooooooooooo.oo.ooXXXXX.      ",
"   .o. .oooooooooooo.o.ooXXXX..       ",
"    .   .oooooooooooo.ooXXXX.         ",
"         .ooooooooooooXXXXXX.         ",
"          .XXXXXXXXXXXXXXX..          ",
"           ..XXXXXXXXXX...            ",
"             ..........               "
};
