/* XPM */
static char *_da711ec5f924e92d45f6ef3b7111356BQYTTOApjkGSOa3L[] = {
/* columns rows colors chars-per-pixel */
"64 64 6 1 ",
"  c None",
". c #2B2317",
"X c #524430",
"o c #635746",
"O c #6D5C46",
"+ c #92826D",
/* pixels */
"                                                                ",
"                                                                ",
"                                                                ",
"                                                                ",
"                                                                ",
"                                                                ",
"                                                                ",
"                                                                ",
"                                                                ",
"                                                                ",
"                                                                ",
"                                                                ",
"                                                                ",
"                                                                ",
"                                                                ",
"                                                                ",
"                                                                ",
"                             .........                          ",
"                            .+++++++++.                         ",
"                           .+++++++++++..                       ",
"                          .+++++++++++++.                       ",
"                         .+++++++++++++++.                      ",
"                        .OO++++++++++++++.                      ",
"                    ......OO+++++++++++++.                      ",
"                ....+++++..O++++++++++XXX.                      ",
"             ...++++++++++..O++++++OXXXXXX.                     ",
"             .+++++++++++++.OO++++OOXXXXXX.                     ",
"            .++++++++++++++.OOOOOOOOOXXXXX.                     ",
"           .+++++++++++++++.OOOOOOOOOXXXXX.                     ",
"          .++++++++++++++++.OOOOOOOOXXXXXX..                    ",
"         .+++++++++++++++++.OOOOOOOOXXXXXXX.                    ",
"        .+++++++++++++++++++OOOOOOOOXXXXXXX.                    ",
"        .O++++++++++++++++++.OOOOOOOXXXXXXXX.                   ",
"       .OOOO++++++++++++XXXX..OOOOOOXXXXXXXX.                   ",
"       .OOOOOO+++++++XXXXXXXX.OOOOOOXXXXXXXX.                   ",
"       .OOOOOOO++++XXXXXXXXXXX.OOOOOXXXXXXXX..                  ",
"       .OOOOOOOOOOXXXXXXXXXXXX..OOOOXXXXXXXXX. .....            ",
"       .OOOOOOOOOOXXXXXXXXXXXXX.OOOXXXXXXXXXX..+++++.           ",
"       .OOOOOOOOOOXXXXXXXXXXXXXX.OOXXXXXXXXXX.++++++.           ",
"       .OOOOOOOOOOXXXXXXXXXXXXXX.OOXXXXXXXXXX.++++++.           ",
"       .OOOOOOOOOOXXXXXXXXXXXXXX..OXXXXXXXXXX..+++++.           ",
"        .OOOOOOOOOOXXXXXXXXXXXXXX.OXXXXXXXXXXX.++++XX.          ",
"        .OOOOOOOOOOXXXXXXXXXXXXXX.OXXXXXXXXXXX.OOOXXX.          ",
"        .OOOOOOOOOOXXXXXXXXXXXXX..OXXXXXXXXXXX.OOOXXX.          ",
"         .OOOOOOOOOXXXXXXXXXXXXX.OOXXXXXXXXXXX.OOOXXX.          ",
"         .OOOOOOOOOOXXXXXXXXXXX..OXXXXXXXXXXXX.OOXXX..          ",
"         .OOOOOOOOOOXXXXXXXX...OOOXXXXXXXXXX..OOXXXX.           ",
"         ..OOOOOOOOOOX.......OOOOOXXXXXXX...  .XXXX.            ",
"           ...........OOOOOOOOOOOo.XXXXX.      ....             ",
"                     ........OOOO. .....                        ",
"                             ....                               ",
"                                                                ",
"                                                                ",
"                                                                ",
"                                                                ",
"                                                                ",
"                                                                ",
"                                                                ",
"                                                                ",
"                                                                ",
"                                                                ",
"                                                                ",
"                                                                ",
"                                                                "
};
