/* XPM */
static char *_fecf67e04f9488eab6dc166071e57e0hzIA5FfaB89WGGhn[] = {
/* columns rows colors chars-per-pixel */
"64 64 149 2 ",
"   c None",
".  c #000000",
"X  c #090603",
"o  c #0C0804",
"O  c #0E0D0D",
"+  c #140C01",
"@  c #180E01",
"#  c #130F0B",
"$  c #1D1100",
"%  c #12100D",
"&  c #1C1308",
"*  c #141414",
"=  c #1E1B17",
"-  c #191919",
";  c #201200",
":  c #341D00",
">  c #3C2200",
",  c #36291A",
"<  c #242424",
"1  c #2B2620",
"2  c #2D2D2D",
"3  c #312B25",
"4  c #37312A",
"5  c #39322A",
"6  c #313131",
"7  c #412400",
"8  c #4B2D07",
"9  c #563000",
"0  c #583100",
"q  c #593B15",
"w  c #6B3D01",
"e  c #703F00",
"r  c #433A31",
"t  c #483F36",
"y  c #494036",
"u  c #51473C",
"i  c #544A3E",
"p  c #5D4F3E",
"a  c #6C4C22",
"s  c #4C4C4C",
"d  c #574C40",
"f  c #5A4F43",
"g  c #5D5146",
"h  c #525151",
"j  c #5D5D5D",
"k  c #625649",
"l  c #6B5D4F",
"z  c #71604D",
"x  c #746555",
"c  c #746658",
"v  c #776858",
"b  c #7A6B5B",
"n  c #686767",
"m  c #6D6C6C",
"M  c #727171",
"N  c #7D7D7D",
"B  c #9A5600",
"V  c #A45C02",
"C  c #B96700",
"Z  c #BA6800",
"A  c #A4702F",
"S  c #CD7200",
"D  c #D07400",
"F  c #D57801",
"G  c #827160",
"H  c #897765",
"J  c #897865",
"K  c #E68100",
"L  c #EB8400",
"P  c #F28500",
"I  c #F38800",
"U  c #FB8C00",
"Y  c #F48D0B",
"T  c #F6900D",
"R  c #FA920D",
"E  c #ED8E16",
"W  c #F69D2D",
"Q  c #F69E30",
"!  c #F4A037",
"~  c #F7A33B",
"^  c #FFA83D",
"/  c #93816D",
"(  c #9A8772",
")  c #9E8A75",
"_  c #A48F79",
"`  c #AC967F",
"'  c #A7927C",
"]  c #B49878",
"[  c #DE9944",
"{  c #E29C44",
"}  c #E39F49",
"|  c #E6A14A",
" . c #E9A34B",
".. c #F6A744",
"X. c #F7A846",
"o. c #F5A849",
"O. c #F9AA4A",
"+. c #F5AE54",
"@. c #F8AE53",
"#. c #F8B057",
"$. c #D6A468",
"%. c #D1A673",
"&. c #FABA6C",
"*. c #F9BD73",
"=. c #FBBF78",
"-. c #FBC079",
";. c #828181",
":. c #8B8A8A",
">. c #979797",
",. c #9F9F9F",
"<. c #AF9981",
"1. c #B39C84",
"2. c #BBA38B",
"3. c #A6A6A6",
"4. c #ACACAC",
"5. c #B1B1B1",
"6. c #B9B9B9",
"7. c #C0A88E",
"8. c #C8AF95",
"9. c #D6BB9F",
"0. c #DABFA2",
"q. c #FCCC94",
"w. c #FFD294",
"e. c #FFD59A",
"r. c #DBC1A4",
"t. c #E2C6A8",
"y. c #E9CCAD",
"u. c #E7CAAB",
"i. c #F6D1A9",
"p. c #FED6AA",
"a. c #FFDAAF",
"s. c #FDD3A3",
"d. c #EDCFB0",
"f. c #F4D5B5",
"g. c #F7D8B7",
"h. c #FFDCB5",
"j. c #F7D9B8",
"k. c #FFDFBD",
"l. c #FFE1BF",
"z. c #C7C7C7",
"x. c #CECECE",
"c. c #D2D2D2",
"v. c #DDDDDD",
"b. c #FFE3C2",
"n. c #FFE9C7",
"m. c #FFEAC9",
"M. c #E7E7E7",
"N. c #ECECEC",
"B. c #F1F1F1",
/* pixels */
"                                                                      . . . . . .                                 . . . . . .   ",
"                                                                    > w w w w w a                               5 x z x x l a   ",
"                                                                    0 U I L P Y [ X                             d b.j.k.k.p.} o ",
"                                                                    0 U I U I R { X                             i n.b.b.b.h. .o ",
"                                                                    0 U I I I T [ .                           . u b.k.k.k.a.| o ",
"                                                                    0 U I I I T { $ + #                   # % o k b.k.k.k.a.| o ",
"                                                                    0 U I I I I E V V A &                 k ` ' 8.l.k.k.k.h.| o ",
"                                                                    0 U I I I I I U U O.&               . b m.n.b.l.k.k.k.a.| o ",
"                                                                    0 U I I I I I I I o.&               . v b.k.l.k.k.l.k.a.| o ",
"                                              . . .                 0 U I I I I I I Y o.% . . . . . . . . v n.l.k.l.k.k.k.a.| o ",
"                                              6 6 2                 0 U I I I I I I I ! 8 : : : : : , 4 3 ( l.l.k.k.k.k.l.a.| o ",
"                                            X 5.z.5.2               0 U I I I I I I I Y F D D S D S $.r.0.d.l.k.k.k.k.k.k.a.| o ",
"                                          . . x.B.c.2               0 U I I I I I I I L U U U U U U -.m.b.b.l.k.k.k.l.k.k.a.| o ",
"                                          < 2 x.M.x.2               0 U I I I I I P I I I I I I I P -.b.k.k.l.k.k.k.k.k.k.a.| o ",
"                                        * 4.6.M.M.x.2               0 U I I I I I I I I I I I I I P -.b.k.k.k.k.k.k.k.k.l.a.| o ",
"                                        O M.B.M.M.c.2               0 U I I I I I I I I I I I I I P =.b.k.k.l.k.k.k.k.k.k.a.| o ",
"                                        * v.M.M.M.c.2               0 U I I I I I I I I I I I I P P =.b.k.k.l.k.k.k.k.k.k.a.| o ",
"                                        * c.M.M.M.x.2               0 U I I I I L I I I P I I I I I =.b.k.k.k.k.k.k.k.k.l.a.| o ",
"                                        O c.M.M.M.x.2               0 U I I I U U I I I I I I I U U =.b.k.l.b.b.l.k.k.k.l.a.| o ",
"                                        = v.M.M.M.x.2               0 U I P K K K I I I I I I I P F q.b.l.g.f.f.g.l.k.k.k.a.| o ",
"                                      - >.M.M.M.M.x.2               0 U I D 0 0 w L I I I I I I P P =.b.b.<.i d / b.k.k.k.a.| o ",
"                                      - M.M.M.M.M.x.2               0 U U Z . . + L I I I I I I P P =.b.n.b . . u b.k.k.k.a.| o ",
"                                      - v.M.M.M.M.x.2               0 U I Z . . ; L I I I I I I P P =.b.n.G . . g b.k.k.l.a.| o ",
"                                      - v.M.M.M.M.x.2               0 U U Z . + B L I I L I I I P P -.b.n.G . 4 2.l.k.k.k.a.| o ",
"                                      - v.M.M.M.M.x.2               0 U U Z . $ S I I I I I I I P P =.b.n.G . i y.l.k.k.k.a.| o ",
"                                      - v.M.M.M.M.x.2               0 U I Z . X 7 L I I I I I I I P =.b.b.G . X v n.k.k.k.a.| o ",
"                                      - v.M.M.M.M.x.2               0 U I Z . . + L I I I I I I I P -.b.n.G . . u l.l.l.l.a.| o ",
"                                      - M.M.M.M.M.x.2               0 U U Z . . $ L P I P I I I I P -.b.b.G . . i n.l.l.k.a.| o ",
"                                      - v.M.M.M.M.x.2               0 U U Z . . @ L I I P P P P P P =.b.n.b . . i b.k.k.k.a.| o ",
"                                      - v.M.M.M.M.x.2               0 U I D w 0 e P I I ..O.O.O.O.O.q.l.l.1.k k ( b.k.k.k.a.| o ",
"                                      - v.M.M.M.M.x.6               0 U I P K K L I P Y s.h.h.h.h.h.k.k.l.j.f.g.j.l.l.k.l.a.| o ",
"                                      - v.M.M.M.M.x.2               0 U P P U I P P P P h.b.b.n.b.l.b.l.l.l.b.l.l.k.k.k.k.a.| o ",
"                                      - v.M.M.M.M.x.2               q ^ ~ ~ ~ ~ ~ ~ ~ ..] f.n.2.y.n.8.0.l.l.k.k.k.k.k.k.k.a.| o ",
"                                      - v.M.M.M.M.x.2               p h.a.a.a.p.a.a.p.i.4 0.j.t 2.b.k ) b.k.k.k.k.k.k.k.k.a.| o ",
"                                      - v.M.M.M.M.x.2               g m.b.l.b.b.b.l.b.k.) k f H l d b 9.b.k.k.k.k.l.k.k.l.a.| o ",
"                                      - v.M.M.M.M.c.2               g n.l.l.b.l.l.k.k.k.k.u 3 0.x 1 2.b.k.k.k.k.l.l.l.b.l.h. .o ",
"                                      - v.M.M.M.M.x.2               g b.k.k.j.k.l.l.k.k.l.t.r.j.u.0.f.l.k.k.k.k.k.k.k.k.k.a.| o ",
"                                      - M.M.M.M.M.x.2               r v c c c c J j.k.k.l.l.b.l.b.b.l.k.l.k.l.p.%.c x x x x a X ",
"                                      - v.M.M.M.M.x.2                 . . . . . & g.k.k.l.l.l.k.l.k.k.k.k.k.l.w.A . . . . . .   ",
"                                      - v.M.M.M.M.x.2                           = g.k.k.l.k.k.k.k.k.k.k.k.k.l.w.A .             ",
"                                      - v.M.M.M.M.x.2                           = g.k.k.k.k.k.k.k.k.k.l.b.b.b.w.A .             ",
"                                      - v.M.M.M.M.x.2                           = g.k.k.k.k.k.k.k.k.k.h.p.p.h.w.A .             ",
"                                      - M.M.M.M.M.x.2                           = g.l.k.k.k.k.k.k.k.l.&.W W *.e.A .             ",
"                                      - v.M.M.M.M.x.2                           = g.k.k.l.k.k.k.k.k.l.O.U F @.e.A .             ",
"                                      - v.M.M.M.M.x.2                           = g.k.k.k.k.k.k.k.k.b.@.P P #.e.A .             ",
"                                      - M.N.B.M.N.x.6                           = g.k.k.k.k.k.k.k.k.l.o.P P @.e.A .             ",
"                                      - ,.3.3.z.x.4.<                           = j.k.k.k.k.l.k.k.k.b.&.Q Q *.e.A .             ",
"                                        - - - N :.j *                           = j.k.k.k.k.k.k.k.k.k.g.p.p.h.w.A .             ",
"                                            . M N s O                           = g.k.k.k.k.k.k.k.k.k.l.b.b.b.e.A .             ",
"                                            . M ;.h O                           = g.l.k.l.k.k.k.k.k.k.k.k.k.l.q.A .             ",
"                                            X M ;.h *                           = g.k.k.k.k.k.k.k.k.k.k.k.k.l.w.A .             ",
"                                            X M ;.h O                           = g.k.k.k.k.k.k.k.k.k.k.k.k.l.e.A .             ",
"                                            . M ;.h *                           = g.k.k.k.k.k.k.k.k.l.k.k.k.k.q.A .             ",
"                                            X M ;.h O                           = g.k.k.l.l.k.l.k.k.l.l.k.k.l.w.A .             ",
"                                            . M ;.h *                           = g.k.l.n.b.b.b.b.b.b.b.b.b.l.w.A .             ",
"                                            . n M s O                           = g.k.h.y.y.y.y.d.u.d.y.u.f.b.w.A .             ",
"                                              < < -                             = g.h.*.p t y y y y y y r _ n.w.A .             ",
"                                              . . .                             = j.h.+.+ . . . . . . . . v m.w.A .             ",
"                                                                                = j.h.+.&               . v n.w.A .             ",
"                                                                                = f.k.+.&               . v n.w.A .             ",
"                                                                                = g.h.+.&               . v m.w.A .             ",
"                                                                                = j.h.+.&               . b m.w.A .             ",
"                                                                                = j.k.+.&               . v n.w.A .             ",
"                                                                                = g.h.@.&               . v n.w.A .             "
};
