/* XPM */
static char *d8d1507283374209a8631e7a4cd9587buNOrSN8AFHlJ5L1y[] = {
/* columns rows colors chars-per-pixel */
"64 64 73 1 ",
"  c #7F6044",
". c #815F40",
"X c #846344",
"o c #896644",
"O c #8F6946",
"+ c #846649",
"@ c #896749",
"# c #86694C",
"$ c #8B6B4C",
"% c #906A47",
"& c #926D4A",
"* c #96714D",
"= c #98724F",
"- c #876C50",
"; c #8B6E52",
": c #8D7154",
"> c #8F7459",
", c #947353",
"< c #9A7552",
"1 c #977857",
"2 c #9C7955",
"3 c #92765A",
"4 c #997759",
"5 c #95795D",
"6 c #9D7C5B",
"7 c #A07F5D",
"8 c #8F7A62",
"9 c #957B61",
"0 c #9A7E62",
"q c #9F805F",
"w c #A1815E",
"e c #9D8165",
"r c #9E856B",
"t c #A48463",
"y c #A88664",
"u c #A78866",
"i c #A98966",
"p c #A1866B",
"a c #A58A6D",
"s c #AC8C6A",
"d c #B08F6D",
"f c #AF906D",
"g c #B1916F",
"h c #A58B71",
"j c #AA8F72",
"k c #AC9174",
"l c #AD9479",
"z c #B49573",
"x c #B79875",
"c c #B99976",
"v c #B29779",
"b c #B5997B",
"n c #BC9D7B",
"m c #BFA07E",
"M c #C09F7E",
"N c #C0A17F",
"B c #B59C82",
"V c #BA9E82",
"C c #BEA283",
"Z c #BCA489",
"A c #C4A584",
"S c #C7A886",
"D c #C8A987",
"F c #C2A789",
"G c #C6A98A",
"H c #CAAB89",
"J c #CEB08E",
"K c #C7AE91",
"L c #CAAF91",
"P c #CDB091",
"I c #CBB399",
"U c #D1B79A",
"Y c #D1B89B",
/* pixels */
"rrBIYYYYYUYYYYYYUUUYYYUUUUUUUUUUUUUUUUUUUUUYYYUUUUUYYYYUUYUUJb0p",
"rZYIJJHJJHHHJJHHLHHHHJHHHHHHHHHJHHHHHHHHHHHHHJHJJHHJHJJJHHHJJJBr",
"BYHHHHHHHHHHHHHHHHHHHDHHSHHHHDDDHHDHHDHHHHHHHHDHHHHHHHHHHHHHHHSj",
"IPHHHHHHHHHJHHHHDHHDHHHDHHDDDDDDDDDDDDGHSHSHHHHDHHHHHHHHHJHHHHGv",
"PHHHHHHGVnADHHHHDHDHDDDDSSDDDDADSDSSSDDDSSHDDHHDDHHHDHHHHHHHHHSv",
"PHHHJHHnp00MHHHHDDDDDDDDSSDDDADDSASSSSASSSSSDDDDDDDHHHDHJHHJHHGk",
"PHHHHHHSt-3FHDDDDDDSDSADSSSAAAAAAAASAVkjvVSSSDDDDDHHHHHHHHHHHHSj",
"PHHJHHHHHGLHHDDSCnbvvvvzbbVCAAAAAAAAMa006tASSSSDDDHDDHHHHHHHHHSk",
"JHHHHHHHHHHHAbjhappppppppaaajvnmAAAAnt$X.:SSASDSSDDDAACCASHHHHDk",
"JJHHHHDHHHVlprt0224**<<4227ttaafcCMMNAjrhCSAAASAADAvhppppjbSHHSl",
"JHHHHHHHSvrp7,&O%%%%&&&&&&=<<2wypgMMMNSSDAAAAAAADAvpp4<<77pcHHDj",
"UHHHHDHGlhp2*&&O%%%%OOO&&&&&**<277dMMMnMNNCVNAAAACh7<&%&&==7DHDl",
"PHHHHHHnay2=*&&OOO%%%O%%&%&&**==777xnnnnMMNNNAAASCd&&*&&&*O3HHHj",
"PHHHHDDva72<*&&OOOOOOOO%OOO%%**=<=<innnnnnnmNNNNAAAi;@o...>VLHDl",
"JHHHHHDnt22<<&&&%%%OO%OOOOO%%%*=<7&anccnnnnnMNNAMAADCvppjBLHHHSj",
"JHHHHHDSi<2<<&&&%%%%%%OOOOOO%%&*=*@vnccczzzzxxnNACAADHJLLLHHHHSl",
"JHHDHHDDAt,<<=*&&&&&OO&O%OOO%%$*$+anzzp000000hpznAAAAAASSSHSHHSj",
"UHHHDDDSSAa,&*<**&&&&&%&OO&%%Oo ;jbzsr0t0442777pgMMMAAASSSSHHHSz",
"JHHHDSDSSASCa3$$&&*&&&&&OOoX.+:aBzgga07<=&O&*==<2nNAACASSSDDSHSj",
"PHHDSSAASAAASFnke5:;-$###:>ealbzsisss6,&=*&O&==@>CNNAAASSSDHHHSl",
"LHGAlhahcACNMMMACCnnbvvvxbvzgfississid0*$@o.XX#9BAnNNNnnMSSHHDSl",
"LHHne64,6CACNMnccxxxzzzsfsiiiiiisiiiiizjap000jBCnnMnaprrpjVDSHSj",
"PHHSa;+#pSNNMnncxxzgzgsssiiityytyytiiiidzzcbbcccnnnke72224iHSHSj",
"LHHHHGFGHAANNnncczzgdsssiiiyiwyyttttiiiiiiddgzzccnncw@@oXXhHSSSl",
"JHHHDDSSACMMMnncxxggfssutttttwwtwwwyyyyiiaisssdzxcnCVvhpjBHHDDSj",
"JHHHDSAAAANMnncczgggst5333>1wwwwwwwwwwq6449599900pagcADDLHSSHHSl",
"LHDHSDAAANNMnnxxxgggs656444,1wwwwwww5:>590777077700pphcCASSSDDSj",
"HHHSSSSSAANNnncxxgggst,oX.X qw2qww6:>rt4&&&%&&&&*==<7tagVSSSHHSj",
"PHGDSAnvzjjzzccxggdsssie539au7qq66:9t7=*&%%%%%%%&&&&<<7tzASSSDSj",
"PHHSbapr0tppppzxxggsdwisasiwq627611y2<=*&&%%%%%%&&&&<<<<7ASDSHDj",
"PHHnpp2<**,277tzzggssswiwwww6666q<1622==&&%%%OOO%&&&<<2<;SSSDHDj",
"PHHbt,<&&&&&*&;czgdsswiwwwwwq6662q61=<<=&&&%%%%%%%&&&<&#hLSSDHDj",
"HHDSj,$OOoo+X+pnggfsiittwwwqqqq22qqq,;**&*&&&%%&%OOOO+:lHGSDDDSl",
"PHHHHClt3>,9aVVxgggsfiitwwqq22q22qqqwt5;@+oo+Oo+oX #5lZGASADDDSj",
"PHHSSHHHGGGSAncxxgse655qwwwqqq2qqqqqqqusaaeee9erakbCFANNAADDSHSj",
"PHDSSSAAAFnnnnxxxi590551wwwwq2qq211,1qqwusszzzbcbnnmmmAAAASSSDSk",
"PHDDDDAANAMnnncxzs6$oo+#wywwqqw2::>33>>2tiiisggzxbcnNNNAAASSDHSj",
"KHHDDAAAANNMMncxzgzee5eagwwwwwq;9tw11<256sssgggxccnnMNNAASSDDHSj",
"PHHDDDDAANNNnncczzzzgzgsiwiwywq16<*&OO**<sssdggxccnmNNNAAASSDSSj",
"JHHDDDAAAANMMncczzzfffiiiiiywwqq*$*&Ooo.6gsdgggxcnnnMnxvMASSHHSl",
"PHDHDSSAANNNMnncczgggsssiiuyyttye3$+X+:rvsdddzzxccnnVj00tASDDHSj",
"PHDGDDSSAAANnczape00e6qetuiityytiskkjzlkssggzzxxnnMmMc6@0DDDDHSl",
"PHHSDDSAFAmzaee0eeetetee090tuiiyiytiissssgggzzxxnnnNNASFHGSDHDSj",
"PHHHDDSSSnhrpt4,&%&&*=<66ttqtiississsssfggzgxxcnnnmNNAASSSDDDDSl",
"PHDHHDSSAkat7==&&%%%%&*=<2267sssssfsddfgggksskzcnNNNMAAASDDDDHSj",
"LHHDDDSSSkq<<<=*&%%%%&**=<2=*ggdfsggggffe09e0rpazcNNAAAASSDHHHSl",
"JHDHDHDSSmw*<<==*&&%%%%**<*+9xggggggggf5rt4<127ttfNAAASSSSDDHHSk",
"PHHDHDHSSSAu1**&**&%%%oo++-hnxzgggxgggea7<*O&*<26wzAAASSSSGHHHSj",
"PHHDACSDSSSDAvp9:;--#--3rlVVxxzzzzczzzt77<=&O&=<<*aSASSSSSSHHDSg",
"PJHn00gDSSSASSGGFAAVCVCACnncxxxxxcccxns<&<<=&&=<*#bDASSSSHHHHHSk",
"JHHCa0cHDSSSAAAANAMACMMnnccncnnccccnnnng4&*;O..@-lGSADDDHDHHHHSk",
"JHHHJLLDDDSSSAAAAANNMMNMMMnnnnnncMnnnnMNVg04>99lZHSSSDDDHDDHHHGk",
"PHHJHHHDHSSSSASAAAAMANMMMnNMnNmnMMnMMMMNCAAGSHGHGSSSSSDDDHHHHHDk",
"JLHHHHHHDHSSSSDAAAAAAMAMNNNNNNmnnnnNNMNNAACAAAAAASSSSSSHHHHHHHDk",
"PJHHHHHHHHHGSSSSSSAAANAAANNNNnaprraxMAMAMAAAAAASSSSSDDHHHHHHHHDk",
"PHHHHHHAVvkkjjkznNASAAAAAAAANk6541,4MAAAAAAASSSSSSSAADDHHDHLHHDk",
"PHHJHHBjpp0007ppphnSSASAAAAAAVt-++;hGAFAAADGASDDAvjaajBDDHHHHJDg",
"PHHHHCa77<=&&*&7266VSSSSDASASSHSFFGHSSSASSDSSDDHB000446CHHHHHHDj",
"PHHHHDs;&&=&&*&&&@#ADSSDDDSSSSSSSDSSSSSSSSSSDDDDAyX.. 3GHHHHHHDj",
"PHHHHHDz9;$O....;0ZLDDDDADSSSSSSSSSDSSSSDSHDDDDHHHABBZPJHJHHHDSj",
"AHHHHHJPPGCVVVVGKPLHDHSHDHDHDDSDDDDSDDDHDDHDDHHHHHHLLHHHHHHHHHn0",
"jAHHHHHHHHPPPPPHHDHHHDHHHDDDDDDHDDDDDDDHHDHHHHHDHHHHHHHHHHHHHGh8",
"rhvCFGGFSSFGAGSASSSSSASAAAASASAFSSSFASSSAAGASAGAAGDSSSSSSSFFBr80",
"0rp00h0rpprh0rpprrrrrrrrrppprrpprrrrrrrrprrrpprrprpprprrrrrr880r"
};
